<mxfile host="app.diagrams.net" modified="2023-06-27T22:59:23.846Z" agent="Mozilla/5.0 (Windows NT 10.0; Win64; x64) AppleWebKit/537.36 (KHTML, like Gecko) Chrome/114.0.0.0 Safari/537.36" etag="TQ641KScEuolgNmiG2Hu" version="21.5.1" type="device">
  <diagram name="Page-1" id="5f0bae14-7c28-e335-631c-24af17079c00">
    <mxGraphModel dx="1181" dy="698" grid="0" gridSize="10" guides="1" tooltips="1" connect="1" arrows="1" fold="1" page="1" pageScale="1" pageWidth="1100" pageHeight="850" background="none" math="0" shadow="0">
      <root>
        <mxCell id="0" />
        <mxCell id="1" parent="0" />
        <mxCell id="vGlIMdMtZq2tFXcC-qCP-17" style="edgeStyle=orthogonalEdgeStyle;rounded=0;orthogonalLoop=1;jettySize=auto;html=1;exitX=1;exitY=0.5;exitDx=0;exitDy=0;exitPerimeter=0;entryX=1.183;entryY=0.498;entryDx=0;entryDy=0;entryPerimeter=0;endArrow=none;endFill=0;" edge="1" parent="1" source="vGlIMdMtZq2tFXcC-qCP-1" target="vGlIMdMtZq2tFXcC-qCP-6">
          <mxGeometry relative="1" as="geometry" />
        </mxCell>
        <mxCell id="vGlIMdMtZq2tFXcC-qCP-23" style="edgeStyle=orthogonalEdgeStyle;rounded=0;orthogonalLoop=1;jettySize=auto;html=1;exitX=0.5;exitY=1;exitDx=0;exitDy=0;exitPerimeter=0;entryX=0;entryY=0.5;entryDx=0;entryDy=0;entryPerimeter=0;endArrow=none;endFill=0;" edge="1" parent="1" source="vGlIMdMtZq2tFXcC-qCP-1" target="vGlIMdMtZq2tFXcC-qCP-7">
          <mxGeometry relative="1" as="geometry" />
        </mxCell>
        <mxCell id="vGlIMdMtZq2tFXcC-qCP-1" value="&lt;font style=&quot;font-size: 25px;&quot; color=&quot;#000000&quot;&gt;Brain&lt;/font&gt;" style="html=1;outlineConnect=0;whiteSpace=wrap;fillColor=#99FFFF;shape=mxgraph.archimate.application;appType=comp;strokeColor=#000000;" vertex="1" parent="1">
          <mxGeometry x="450" y="296" width="164.71" height="100" as="geometry" />
        </mxCell>
        <mxCell id="vGlIMdMtZq2tFXcC-qCP-2" value="&lt;font style=&quot;font-size: 25px;&quot; color=&quot;#000000&quot;&gt;Raycaster&lt;/font&gt;" style="html=1;outlineConnect=0;whiteSpace=wrap;fillColor=#99FFFF;shape=mxgraph.archimate.application;appType=comp;strokeColor=#000000;" vertex="1" parent="1">
          <mxGeometry x="750" y="296" width="164.71" height="100" as="geometry" />
        </mxCell>
        <mxCell id="vGlIMdMtZq2tFXcC-qCP-4" value="&lt;font color=&quot;#000000&quot;&gt;Fahrzeugsteuerung&lt;/font&gt;" style="swimlane;html=1;fillColor=#ffffff;whiteSpace=wrap" vertex="1" parent="1">
          <mxGeometry x="320" y="480" width="440" height="215" as="geometry" />
        </mxCell>
        <mxCell id="vGlIMdMtZq2tFXcC-qCP-5" value="&lt;font style=&quot;font-size: 25px;&quot; color=&quot;#000000&quot;&gt;Beschleunigung&lt;/font&gt;" style="html=1;outlineConnect=0;whiteSpace=wrap;fillColor=#99FFFF;shape=mxgraph.archimate.application;appType=comp;strokeColor=#000000;" vertex="1" parent="vGlIMdMtZq2tFXcC-qCP-4">
          <mxGeometry x="230" y="72" width="194.71" height="100" as="geometry" />
        </mxCell>
        <mxCell id="vGlIMdMtZq2tFXcC-qCP-3" value="&lt;font style=&quot;font-size: 25px;&quot; color=&quot;#000000&quot;&gt;Lenkung&lt;/font&gt;" style="html=1;outlineConnect=0;whiteSpace=wrap;fillColor=#99FFFF;shape=mxgraph.archimate.application;appType=comp;strokeColor=#000000;" vertex="1" parent="vGlIMdMtZq2tFXcC-qCP-4">
          <mxGeometry x="20" y="72" width="164.71" height="100" as="geometry" />
        </mxCell>
        <mxCell id="vGlIMdMtZq2tFXcC-qCP-18" style="edgeStyle=orthogonalEdgeStyle;rounded=0;orthogonalLoop=1;jettySize=auto;html=1;exitX=0;exitY=0.5;exitDx=0;exitDy=0;exitPerimeter=0;entryX=0;entryY=0.5;entryDx=0;entryDy=0;entryPerimeter=0;endArrow=none;endFill=0;" edge="1" parent="1" source="vGlIMdMtZq2tFXcC-qCP-6" target="vGlIMdMtZq2tFXcC-qCP-2">
          <mxGeometry relative="1" as="geometry" />
        </mxCell>
        <mxCell id="vGlIMdMtZq2tFXcC-qCP-6" value="" style="shape=providedRequiredInterface;html=1;verticalLabelPosition=bottom;sketch=0;direction=west;" vertex="1" parent="1">
          <mxGeometry x="670" y="336" width="20" height="20" as="geometry" />
        </mxCell>
        <mxCell id="vGlIMdMtZq2tFXcC-qCP-24" style="edgeStyle=orthogonalEdgeStyle;rounded=0;orthogonalLoop=1;jettySize=auto;html=1;exitX=1;exitY=0.5;exitDx=0;exitDy=0;exitPerimeter=0;entryX=0.482;entryY=-0.006;entryDx=0;entryDy=0;entryPerimeter=0;" edge="1" parent="1" source="vGlIMdMtZq2tFXcC-qCP-7" target="vGlIMdMtZq2tFXcC-qCP-4">
          <mxGeometry relative="1" as="geometry" />
        </mxCell>
        <mxCell id="vGlIMdMtZq2tFXcC-qCP-7" value="" style="shape=providedRequiredInterface;html=1;verticalLabelPosition=bottom;sketch=0;direction=south;" vertex="1" parent="1">
          <mxGeometry x="522.35" y="426" width="20" height="20" as="geometry" />
        </mxCell>
        <mxCell id="vGlIMdMtZq2tFXcC-qCP-8" value="&lt;font style=&quot;font-size: 25px;&quot; color=&quot;#000000&quot;&gt;Tacho&lt;/font&gt;" style="html=1;outlineConnect=0;whiteSpace=wrap;fillColor=#99FFFF;shape=mxgraph.archimate.application;appType=comp;strokeColor=#000000;" vertex="1" parent="1">
          <mxGeometry x="180" y="296" width="164.71" height="100" as="geometry" />
        </mxCell>
        <mxCell id="vGlIMdMtZq2tFXcC-qCP-14" style="edgeStyle=orthogonalEdgeStyle;rounded=0;orthogonalLoop=1;jettySize=auto;html=1;exitX=1;exitY=0.5;exitDx=0;exitDy=0;exitPerimeter=0;entryX=0;entryY=0.5;entryDx=0;entryDy=0;entryPerimeter=0;endArrow=none;endFill=0;" edge="1" parent="1" source="vGlIMdMtZq2tFXcC-qCP-12" target="vGlIMdMtZq2tFXcC-qCP-1">
          <mxGeometry relative="1" as="geometry" />
        </mxCell>
        <mxCell id="vGlIMdMtZq2tFXcC-qCP-16" style="edgeStyle=orthogonalEdgeStyle;rounded=0;orthogonalLoop=1;jettySize=auto;html=1;exitX=0;exitY=0.5;exitDx=0;exitDy=0;exitPerimeter=0;endArrow=none;endFill=0;" edge="1" parent="1" source="vGlIMdMtZq2tFXcC-qCP-12" target="vGlIMdMtZq2tFXcC-qCP-8">
          <mxGeometry relative="1" as="geometry" />
        </mxCell>
        <mxCell id="vGlIMdMtZq2tFXcC-qCP-12" value="" style="shape=providedRequiredInterface;html=1;verticalLabelPosition=bottom;sketch=0;direction=east;" vertex="1" parent="1">
          <mxGeometry x="380" y="336" width="20" height="20" as="geometry" />
        </mxCell>
        <mxCell id="vGlIMdMtZq2tFXcC-qCP-25" value="Fahrbahn" style="text;html=1;strokeColor=none;fillColor=none;align=center;verticalAlign=middle;whiteSpace=wrap;rounded=0;" vertex="1" parent="1">
          <mxGeometry x="650" y="296" width="60" height="30" as="geometry" />
        </mxCell>
        <mxCell id="vGlIMdMtZq2tFXcC-qCP-26" value="Geschwindigkeit" style="text;html=1;strokeColor=none;fillColor=none;align=center;verticalAlign=middle;whiteSpace=wrap;rounded=0;" vertex="1" parent="1">
          <mxGeometry x="370" y="296" width="60" height="30" as="geometry" />
        </mxCell>
        <mxCell id="vGlIMdMtZq2tFXcC-qCP-27" value="durchzufÃ¼hrende&amp;nbsp;&lt;br&gt;Bewegung" style="text;html=1;strokeColor=none;fillColor=none;align=center;verticalAlign=middle;whiteSpace=wrap;rounded=0;" vertex="1" parent="1">
          <mxGeometry x="542.35" y="416" width="110" height="30" as="geometry" />
        </mxCell>
        <mxCell id="vGlIMdMtZq2tFXcC-qCP-28" value="&lt;font style=&quot;font-size: 25px;&quot; color=&quot;#000000&quot;&gt;Configuration&lt;/font&gt;" style="html=1;outlineConnect=0;whiteSpace=wrap;fillColor=#99FFFF;shape=mxgraph.archimate.application;appType=comp;strokeColor=#000000;" vertex="1" parent="1">
          <mxGeometry x="453" y="108" width="164.71" height="100" as="geometry" />
        </mxCell>
        <mxCell id="vGlIMdMtZq2tFXcC-qCP-30" style="edgeStyle=orthogonalEdgeStyle;rounded=0;orthogonalLoop=1;jettySize=auto;html=1;exitX=1;exitY=0.5;exitDx=0;exitDy=0;exitPerimeter=0;endArrow=none;endFill=0;" edge="1" parent="1" source="vGlIMdMtZq2tFXcC-qCP-29" target="vGlIMdMtZq2tFXcC-qCP-1">
          <mxGeometry relative="1" as="geometry" />
        </mxCell>
        <mxCell id="vGlIMdMtZq2tFXcC-qCP-32" style="edgeStyle=orthogonalEdgeStyle;rounded=0;orthogonalLoop=1;jettySize=auto;html=1;exitX=0;exitY=0.5;exitDx=0;exitDy=0;exitPerimeter=0;entryX=0.481;entryY=0.966;entryDx=0;entryDy=0;entryPerimeter=0;endArrow=none;endFill=0;" edge="1" parent="1" source="vGlIMdMtZq2tFXcC-qCP-29" target="vGlIMdMtZq2tFXcC-qCP-28">
          <mxGeometry relative="1" as="geometry" />
        </mxCell>
        <mxCell id="vGlIMdMtZq2tFXcC-qCP-29" value="" style="shape=providedRequiredInterface;html=1;verticalLabelPosition=bottom;sketch=0;direction=south;" vertex="1" parent="1">
          <mxGeometry x="522.35" y="243" width="20" height="20" as="geometry" />
        </mxCell>
        <mxCell id="vGlIMdMtZq2tFXcC-qCP-33" value="Fahrzeuginformationen" style="text;html=1;align=center;verticalAlign=middle;resizable=0;points=[];autosize=1;strokeColor=none;fillColor=none;" vertex="1" parent="1">
          <mxGeometry x="550" y="243" width="141" height="26" as="geometry" />
        </mxCell>
      </root>
    </mxGraphModel>
  </diagram>
</mxfile>
